<svg id="939dbe75-2478-4aa8-ba74-df8b9d994519" data-name="Layer 1" xmlns="http://www.w3.org/2000/svg" viewBox="0 0 1216.61 319.32"><title>NY_logo</title><path d="M1112.38,139.77c2.8,1.26,6.16,3,9.67,4.3,3.67,1.41,6.59.38,8-3.53,2.83-8,5.8-15.9,8.19-24,.56-1.89-.57-4.59-1.58-6.58-4.4-8.71-9.05-17.31-14-26.72a44.31,44.31,0,0,0-1.94,4.1C1118,95.2,1114.14,102.9,1113,111c-2.16,15.07-12.64,26.65-15.76,41.22-1.15,5.38-5.84,2.58-9.26,2.2-2.29,3.23-4.13,6.94-7,9.47a10.07,10.07,0,0,1-7.87,2c-14.38-3.58-24.32-13.12-32.06-25.29-1.46-2.29-2.85-4.63-4.73-7.67-1.42,5.16-2.91,9.19-3.59,13.35-1.52,9.23-7.9,15.68-13.16,22.53-1.7,2.21-7.66,3.15-10.67,2-12.7-4.77-25.39-10-33.18-22.17-3.71,3-7.1,5.9-10.56,8.65-7.35,5.83-10.25,6-18.42,1.27-1.57-.91-3.11-1.87-5.84-3.53a12.41,12.41,0,0,1-1.45,2.78c-6,7.07-14.36,10.5-23,9.37-6.57-.85-13.19-4.61-18.79-8.51s-8.46-10.52-8.86-17.26a322.11,322.11,0,0,1-.23-32.74c.56-13.28,2-26.52,2.87-39.78a34.52,34.52,0,0,0-.52-5.7l-1.68-.53c-1,2-1.93,4-3.1,6-1.66,2.73-3,6.07-5.39,7.87-8,6-8.1,14.79-9,23.22-1.72,16.16-3.09,32.36-4.41,48.56a111.14,111.14,0,0,0,.2,12c.09,3.3-1.14,4.18-4.29,2.81-8.66-3.78-15.23-9.7-19.25-18.29a5.66,5.66,0,0,1-.43-3.36c1.3-5.83,2.21-11.83,4.31-17.37,5-13.32,3.68-27.48,6-41.15,1-5.9-.52-12.24-1-18.37a26.33,26.33,0,0,0-1.21-4.61l-1.77-.55c-1.75,3.31-4,6.47-5.18,10a253.71,253.71,0,0,0-11.55,48.36c-1.71,12.53-7.83,24.52-12.55,36.53-1.25,3.19-4.27,5.94-7,8.25-3.54,3-7.45,5.41-12.52,2.44a62.81,62.81,0,0,0-10.35-4.42,3.75,3.75,0,0,0-3.26.73c-1.14,1.13-1.69,2.84-2.63,4.2-2,2.94-4.35,4.11-7.89,2-10.89-6.61-13.31-10.82-11.26-23.25,3.57-21.58,4.91-43.3,5.11-65.11,0-4.13-1.39-8.28-2.28-13.18-8.6,4.74-12.5,11.63-14.74,19.29-4.81,16.41-9.7,32.85-13.31,49.55-2,9.26-1.73,19.05-2.08,28.61-.21,5.69-3.39,8.58-7.71,5.4-7.25-5.34-14.83-10.44-19.76-18.51-3.57-5.84-.6-10.26,1.59-15.25,2.44-5.57,5.1-11.2,6.39-17.09,1.92-8.73,3.57-17.68,3.76-26.57.17-7.67-1.44-15.47-3.06-23-1.11-5.16-3.71-5.85-8-3-14.85,9.81-21.9,24.15-22.63,41.47-.45,10.72-1,21.26-5,31.32a11.28,11.28,0,0,1-1.37,3.16q-8.78,10.1-17.74,20a17.27,17.27,0,0,1-20.07,4.61,128,128,0,0,1-17.23-8.87c-9.69-6.1-11.75-16.38-13.49-26.67-.11-.65-.19-1.3-.37-2.56-3.91,1-6.22,3.6-8.18,6.6-3.54,5.39-7.21,10.71-10.46,16.27a15.45,15.45,0,0,0-2.19,7.46c.06,11.64.94,23.3.71,34.93-.5,24.15-1.43,48.35-10.86,71.09-1.34,3.24-5.29,5.53-8.32,7.88-1.79,1.39-4.66,1.53-6.17,3.09-7.9,8.1-16.62,4.36-24.45,1.07-24.24-10.2-27.74-32.31-21-52.79,3.52-10.67,7.42-21.35,12.54-31.31,3.89-7.56,9.68-14.23,15.16-20.85,4.75-5.74,10.26-10.85,15.41-16.27a11.38,11.38,0,0,0,1.15-2.18c-1.66-.22-3.06-.84-4.09-.46-14.19,5.21-25.23-.64-35.23-10-4.54-4.23-5.7-4.1-8.63,1.39-3,5.7-6,11.49-9.44,16.91a7.82,7.82,0,0,1-5.81,3c-5.41-.11-11.07-.21-16.15-1.84a94.42,94.42,0,0,1-20.87-9.32c-4.89-3-8.56-8-13.36-12.75-1.59,2.38-3.44,5.17-5.29,8-4.58,6.93-15,9.19-22.22,4.88-6.32-3.8-12.7-7.52-20-11.82-1.41,2.69-3.16,5.56-4.46,8.62-1.76,4.11-2.65,8.68-4.87,12.49-3.28,5.6-3.08,11.34-2.56,17.35,1,11.6,2.67,23.21,2.6,34.82-.09,15,1.69,30.21-2.77,45-.34,1.1-.64,2.22-.92,3.34-.92,3.66-2.37,6.81-1.54,11.24,1,5.29-2.19,10.61-7,14.15a4.08,4.08,0,0,0-1.49,1.69c-3.54,10.23-9.27,19.13-18.05,25.35-8.46,6-18,5.81-27.32,1.42-6.31-3-12.47-6.29-18.7-9.44-4.53-2.3-3.71-7-3.93-10.57a83.71,83.71,0,0,1,9.35-43.81c9-17.59,18.49-34.91,27.7-52.39,5.34-10.13,10.48-20.37,15.84-30.49,3-5.66,1.29-11.51.62-17.14-1.05-8.73-3-17.35-4.65-26a36.59,36.59,0,0,0-1.45-4.56c-.61.13-1.14.11-1.19.26-4,11.81-7.45,23.87-12.28,35.34-2.68,6.38-7.33,12.07-11.78,17.52a45.2,45.2,0,0,1-11.88,10.68c-2.68,1.55-7.2,1.15-10.47.19-7.78-2.3-15.9-4.55-21.26-11.29-2.47-3.11-5.23-6.84-5.69-10.56-2-16.8-3.36-33.7-4.85-50.57-.73-8.29-1.09-16.61-1.9-24.88-.55-5.56-2.41-7.9-7.53-10.63-1.31,1.54-3.11,3-4,4.79-6.6,13.79-13.17,27.42-11,43.67,1.71,12.66,1.69,25.54,2.79,38.29.41,4.73,1.82,9.37,3.11,15.72-4.05-.62-7.34-.44-10-1.68-4.6-2.2-8.75-5.35-13.18-7.94-5.55-3.26-5.61-8.34-5.19-13.88,1.64-21.29,2-42.53-4.16-63.31-.47-1.57-1.86-2.86-3.47-5.26-.87,2.41-1.19,3.31-1.52,4.21-2.57,7-5.56,13.79-7.59,20.9-1.62,5.68-1.72,11.78-3.11,17.55-2.81,11.72-6.05,23.33-9,35a5.94,5.94,0,0,0,.19,3.26c1.41,4-.45,6.81-4.79,6.27-4.82-.59-8.18-.29-10.43,5.18-1,2.5-5.6,5.17-8.4,5a125.41,125.41,0,0,1-23.88-3.84c-7.91-2.05-11.53-8.44-12.91-16.19-.24-1.37-.71-2.7-1.17-4.38-4.24,4.81-8,9.14-11.84,13.42a10,10,0,0,1-11.25,3.17c-3.59-1.11-6.37-.82-8,3.42-.47,1.25-3.16,2.52-4.67,2.36-10.14-1.08-19.4-10.45-20.65-20.52-1.8-14.52-4.11-29-5.14-43.58-.74-10.41.27-20.94.49-31.41,0-1.57,0-3.14,0-4.7l-1.27-.45c-.76.87-1.86,1.6-2.22,2.61-3.25,9-6.92,18-9.35,27.24-2.07,7.92-2.71,16.21-3.88,24.35a72,72,0,0,0-1.17,11.39c.11,7.07.74,14.14,1.1,21.21.08,1.57.51,4.13-.18,4.51a6.24,6.24,0,0,1-5.09.25c-7-3.51-14-7-20.45-11.37-2-1.35-3.25-5.69-2.81-8.32,2-11.77,4.92-23.38,7.1-35.12a68.64,68.64,0,0,0,1-14.81c-.31-9.14-1.12-18.25-1.82-27.37a41.57,41.57,0,0,0-1.08-5.21l-1.41-.64c-3.33,4.5-7.07,8.74-9.91,13.53-8,13.39-12.49,28.18-16.6,43.1-1.15,4.16-10.83,8.77-14.5,6.56A5.91,5.91,0,0,1,0,129.84c1.64-9.11,2.73-18.5,5.83-27.14C11.16,88,18.55,74.17,30.19,63.38c10.1-9.37,20.88-8.07,29.45,2.67.81,1,1.74,2,2.83,3.19C66,64.5,68.29,59.3,74.28,56.73c15.68-6.76,35.64,5.11,38,22,2.49,18-.15,35.74-.44,53.59-.17,10.82-1.46,21.78,5,32.7,2.51-2.95,5.27-5.33,7-8.32,8.94-15.73,15.69-32.55,18.48-50.3,1.76-11.25,0-23.09-.59-34.65-.17-3.48.06-5.82,4-6.67,5.34-1.17,10.6-2.68,15.94-3.85,4.43-1,5.91.34,5.44,4.9-1.19,11.57-2.69,23.1-3.77,34.68a70.16,70.16,0,0,0,.31,11.94c.95,11.89,1.86,23.79,3.15,35.65A149,149,0,0,0,169.85,165c.67,2.95,2.38,3.38,5.23,1.95,5.16-2.58,8-6.21,8.84-12.14,2.31-15.78,5-31.56,11.22-46.39,4.29-10.23,7.76-21,15.68-29.3,10.36-10.91,26.12-10.22,35,1.6.39.52.79,1,1.21,1.57,2.34-3.25,4.27-6.65,6.87-9.39,7-7.34,25-8.28,33.43-2.68,10.25,6.86,12.88,17.37,14.33,28.34,1.32,10,1.81,20.17,2.44,30.28.41,6.56-.13,13.22.74,19.71.92,6.86,3,13.57,4.58,20.34l1.57.74c3.25-3.73,7.45-7,9.58-11.27,7-14.12,14.14-28.29,19.48-43.08,3.38-9.36,3.88-19.81,5.14-29.85.29-2.34-1.24-5.14-2.51-7.41-4.64-8.31-2.93-12.95,6.13-15.36a68.34,68.34,0,0,1,9.73-1.82c4.18-.49,7.37,2.14,7.36,6.6,0,12.24,5.36,22.77,9.77,33.68,3.09,7.66,5.69,15.51,8.54,23.26a20.28,20.28,0,0,0,2,2.7c3.9-14.18,14.87-23.56,17.42-37.63L408,92.34c2.65-5.75,4.87-11.58,7.94-16.93,2.78-4.86,6.79-9,9.68-13.82,2.38-4,3.92-8.46,6.16-13.45l8.8,1.54C445,39.35,453.85,44.42,461,45.41c6.1.84,9.65,6.38,10.82,12.44a71.31,71.31,0,0,1,1.6,15.85c-.53,15.55,3.67,30.31,6.7,45.28,1.12,5.54,2,11.14,2.65,16.75.62,5.06,2,6.15,6.28,3.32A46,46,0,0,0,509.72,108a73.23,73.23,0,0,0-1.85-35.34C505.1,63.59,508.45,59,518,59c3.82,0,7.72-.45,11.44.18,1.64.28,4,2.59,4.17,4.2.75,6.25.74,12.59,1.06,18.89s.8,12.53,1.05,18.8a68.6,68.6,0,0,1-.38,7.29c-.6,9,2.19,17.32,5.76,25.4,1.36,3.09,3.63,3.44,5.77.85,7.49-9.09,15-18.19,22.14-27.53,1.35-1.77,1.65-4.72,1.63-7.12-.08-8.31-.4-16.62-.87-24.92a34.39,34.39,0,0,0-1.59-8.72c-2.29-6.82,1.73-10.47,8.83-11.46,5.38-.74,10,.13,14.86,1.19,2.66.58,3.8,2,4.8,4.77,2.92,8-.62,15.44-1.31,23.07-1,11.06-2.62,22-3.88,33.08a8.84,8.84,0,0,0,1.29,5.49c8.22-10.59,16.74-21,24.49-31.9,2.32-3.27,2.19-8.19,3.76-12.12.7-1.78,2.76-3.06,4.29-4.47,1.77-1.63,4-2.88,5.4-4.77,2.78-3.83,5.12-8,7.55-11.85C646.77,58.9,654.93,60.2,663,62c5,1.09,9.78,3.07,14.75,4.24,1.46.34,4.08-.17,4.77-1.21a29.27,29.27,0,0,1,41.29-8.12c5,3.53,8.75,8.83,13.25,13.5,2.8-3.15,6.44-6.76,9.53-10.79C757,46,778.32,51.35,785.21,61.74a42.57,42.57,0,0,1,6.42,32.46c-3.11,16.06-2.42,32-1.42,48.12.1,1.63.24,3.61,1.18,4.72a4.22,4.22,0,0,0,4.1.63c1.57-1,2.62-2.92,3.73-4.56,11.64-17.14,15.57-37.19,21.83-56.44,3.66-11.29,9-22.17,14.72-32.62,5-9.08,19.29-9.45,26.25-1.48,1.52,1.74,2.76,3.73,4.35,5.9,2.06-2,4-4.07,6.26-5.92,10.1-8.49,27.8-4.71,34.06,6.87,4.83,8.92,5,18.38,3,27.66-2.82,13.51-6,26.9-5.58,40.8.15,4.79.27,9.75,1.58,14.3,3.15,10.89,14.76,13,22.53,4.34-2.09-3.28-4.55-6.46-6.29-10-4-8.18-3.37-16.71-1.33-25.32,4.24-17.86,15.47-31.42,27-44.83,1.89-2.19,3.15-4.92,5-7.9,1.53,1.1,3,2.58,4.69,3.26a40.18,40.18,0,0,0,7.12,1.6c2.69.53,5.52.65,8.07,1.57,3.71,1.33,7.21,3.25,10.82,4.88,5.37,2.42,10.91,9.32,10.78,16.39-.21,10.91.76,21.87,1.65,32.77.59,7.08,1.87,14.11,3,21.15a27.65,27.65,0,0,0,1.66,4.78l1.83.49c2.51-4.13,5.77-8,7.39-12.46q6.93-19.15,12.6-38.77c.83-2.84-.6-6.45-1.36-9.62-1.64-6.85.58-9.67,7.67-9.35,3.65.17,7.3.32,11,.56,3,.19,5.49,1.08,6,4.74.71,5.57,1.74,11.1,2.48,16.67,1,7.4,2.29,14.8,2.57,22.24.41,10.64,6.24,18.37,12.63,25.87,2.2,2.58,5.85.63,7.24-2.65.91-2.16,3.48-3.57,5.16-5.46a23.4,23.4,0,0,0,4.14-5.44c4.64-10.19,9-20.5,13.56-30.74,2.13-4.79,4.51-9.46,6.66-14.25a8.89,8.89,0,0,0,.39-3.2c.09-3-.74-6.32.33-8.88,3.42-8.18-2.21-13.47-5.39-19.58-.73-1.39-1.64-2.69-3.52-5.72,6.24-.25,11.08-.83,15.85-.53,3.93.25,7.82,1.44,11.67,2.44a5.38,5.38,0,0,1,3,2.14c3.48,5.76,6,12.3,10.32,17.3,6,7,9,14.91,11.44,23.46,1.93,6.81,4.5,13.45,10.54,19.84,1.24-7,2.29-12.72,3.28-18.47,1-6.06,1.35-12.35,3.24-18.13,1.82-5.54,5.2-10.59,8-15.79,1.34-2.46,2.95-4.77,4.5-7.11a10.44,10.44,0,0,1,2.09-2.52c2-1.59,4.13-3,7.29-5.29,7.12,3.48,16.65,6.71,24.45,12.34,7.63,5.5,9.21,15.14,9.15,24.3a50.07,50.07,0,0,1-2.34,15.21c-1.5,4.54-4.35,8.71-7,12.78a61,61,0,0,1-7.46,9.26,180.29,180.29,0,0,1-15.72,14.71c-1.61,1.28-5,.46-7.61.27-1.38-.1-2.7-.93-4.31-1.54-2,10.48,1,18.68,9.22,24.4,1.94,1.35,5.79,1.31,8.18.39,7.74-3,16.41-4.6,21.43-12.45,4.54,9.69,1.91,22.74-5.84,29.48a13.33,13.33,0,0,1-14.85,1.74c-15.48-7.85-27-19.21-31.94-36.34a19.56,19.56,0,0,0-1.81-3.19c-3.19,6.31-5.72,12.21-9,17.63-4.56,7.49-9.22,15-17.44,19.3-3.87,2-7.65,1.72-10.69-.94-8-7-14-15.56-16.58-26-.22-.88.65-2.47,1.49-3.09C1106.75,143.08,1109.43,141.6,1112.38,139.77Zm-535.92,34.4c-4.12,4.83-8.18,8.15-10.38,12.42-6.33,12.31-11.59,25.16-17.87,37.49-5.85,11.47-5,23.18-2.26,34.95.6,2.55,3.62,5.39,6.16,6.28,1.48.52,4.26-2.51,6.38-4.05.91-.65,1.49-1.93,2.46-2.29,5.4-2,7.87-6.32,9.52-11.38C578.15,224.14,579.2,200.13,576.46,174.17Zm62-27c13.25-6.58,18.37-18.37,21-31.55,1.38-7,1.75-14.1,2.54-21.16a14.76,14.76,0,0,0-10.6-16.32A3.92,3.92,0,0,0,648,79c-1.78,2.14-3.85,4.44-4.57,7-3.61,13.07-7.43,26.14-9.95,39.44C632.09,132.8,632.69,140.71,638.48,147.16ZM445.29,70.56c-18.55,12.56-28,45.62-20,64.28C443.24,123.94,454.69,87.06,445.29,70.56ZM374.78,215.84h-.95c-2,4-3.89,8-6,11.86-3.84,7.11-8.19,14-11.64,21.25-4.73,10-8.92,20.27-13.12,30.52a116.3,116.3,0,0,0-4.6,13.92c-1.07,4,1.82,4.52,4.31,3.15,3.73-2.05,7.63-4.36,10.36-7.52a65.54,65.54,0,0,0,14.49-29.19c1.85-8.43,3.39-16.95,4.8-25.47C373.45,228.23,374,222,374.78,215.84ZM967.85,106.61c0-3,.14-5.56,0-8a43.89,43.89,0,0,0-1.14-7.38c-1-3.81-2.84-4.36-5.5-1.39a121.07,121.07,0,0,0-10,12.32c-6,8.8-11.27,18.11-12,29-.21,3.27.63,7.68,2.76,9.76,2.9,2.85,6.58.09,9.25-2.25C961.07,130,969.77,120.72,967.85,106.61Zm206.29,2.94c12.22-5.07,18-15.44,21.09-27.55.77-3.06-.53-6.89-1.61-10.12-1.34-4-5.06-4.78-7-1.16-4.74,8.9-12.41,16.57-12.49,27.58C1174.11,102.07,1174.14,105.83,1174.14,109.55Z"/><path d="M1043.53,27.1c-2.08,4.85-4.48,10.08-6.58,15.42-1.84,4.67-4.84,4.22-7.74,1.66-4.48-3.94-8.59-8.31-12.83-12.54-1.85-1.85-3.64-3.76-5.4-5.7s-2-3.67.8-5.08c3.46-1.72,5.51-4.07,1.28-8.49C1025.18,14.17,1034.37,19.09,1043.53,27.1Z"/><path d="M367.85,26.5A22.44,22.44,0,0,0,367,30c-1.22,11.52-3.46,8.8-10.95,4.64-5.61-3.12-11.21-6.27-16.54-9.82-1.5-1-2-3.45-3-5.24,1.5-.62,3-1.35,4.49-1.85,3.16-1,6.46-1.68,9.53-2.91C356.26,12.48,367.86,19.61,367.85,26.5Z"/><path d="M155.39,0c4.84,1.82,9.86,3.26,14.45,5.58,2.86,1.45,3.73,4.31,1.66,7.61-1.81,2.9-2.78,6.34-4.72,9.13A5.69,5.69,0,0,1,162,24.06c-8.63-1.64-10.59-3.85-12.18-12.56-.2-1.14-.43-2.28-.74-3.39C147.17,1.14,147.26,1,155.39,0Z"/></svg>